<svg width="46" height="37" viewBox="0 0 46 37" fill="none" xmlns="http://www.w3.org/2000/svg">
<path d="M12.9975 29.42C11.3375 29.42 9.79746 29.16 8.37746 28.64C6.95746 28.1 5.72746 27.34 4.68746 26.36C3.66746 25.38 2.86746 24.23 2.28746 22.91C1.70746 21.57 1.41746 20.1 1.41746 18.5C1.41746 16.9 1.70746 15.44 2.28746 14.12C2.86746 12.78 3.67746 11.62 4.71746 10.64C5.75746 9.66 6.98746 8.91 8.40746 8.39C9.84746 7.85 11.4175 7.58 13.1175 7.58C15.0975 7.58 16.8675 7.91 18.4275 8.57C19.9875 9.23 21.2775 10.18 22.2975 11.42L18.5175 14.84C17.7975 14.06 17.0175 13.48 16.1775 13.1C15.3575 12.7 14.4375 12.5 13.4175 12.5C12.5175 12.5 11.6975 12.64 10.9575 12.92C10.2175 13.2 9.58746 13.61 9.06746 14.15C8.54746 14.67 8.13746 15.3 7.83746 16.04C7.55746 16.76 7.41746 17.58 7.41746 18.5C7.41746 19.38 7.55746 20.19 7.83746 20.93C8.13746 21.67 8.54746 22.31 9.06746 22.85C9.58746 23.37 10.2075 23.78 10.9275 24.08C11.6675 24.36 12.4775 24.5 13.3575 24.5C14.2375 24.5 15.0975 24.36 15.9375 24.08C16.7775 23.78 17.6275 23.28 18.4875 22.58L21.8175 26.75C20.6175 27.61 19.2275 28.27 17.6475 28.73C16.0675 29.19 14.5175 29.42 12.9975 29.42ZM16.5675 25.97V18.05H21.8175V26.75L16.5675 25.97Z" fill="#F6A010"/>
<path d="M25.5834 29V8H35.1834C37.1034 8 38.7534 8.31 40.1334 8.93C41.5334 9.55 42.6134 10.45 43.3734 11.63C44.1334 12.79 44.5134 14.17 44.5134 15.77C44.5134 17.35 44.1334 18.72 43.3734 19.88C42.6134 21.04 41.5334 21.94 40.1334 22.58C38.7534 23.2 37.1034 23.51 35.1834 23.51H28.8834L31.5234 20.93V29H25.5834ZM31.5234 21.56L28.8834 18.83H34.8234C36.0634 18.83 36.9834 18.56 37.5834 18.02C38.2034 17.48 38.5134 16.73 38.5134 15.77C38.5134 14.79 38.2034 14.03 37.5834 13.49C36.9834 12.95 36.0634 12.68 34.8234 12.68H28.8834L31.5234 9.95V21.56Z" fill="#313131"/>
</svg>
